<svg width="848" height="861" viewBox="0 0 848 861" fill="none" xmlns="http://www.w3.org/2000/svg">
<path opacity="0.3" d="M832.215 324.348C840.77 349.536 827.3 376.893 802.13 385.452C776.96 394.011 749.62 380.531 741.065 355.343L705.49 250.602C696.935 225.414 710.405 198.057 735.575 189.498C760.746 180.939 788.085 194.419 796.64 219.607L832.215 324.348Z" fill="#0063FF"/>
<path opacity="0.4" d="M771.423 472.836C779.631 497.001 765.879 523.528 740.709 532.087C715.539 540.647 688.48 527.996 680.273 503.831L569.861 178.749C561.653 154.584 575.405 128.056 600.575 119.497C625.745 110.938 652.803 123.589 661.011 147.754L771.423 472.836Z" fill="#0063FF"/>
<path opacity="0.6" d="M598.081 612.684C606.636 637.872 593.167 665.229 567.996 673.788C542.826 682.347 515.486 668.867 506.931 643.679L335.746 139.667C327.191 114.479 340.661 87.1222 365.831 78.5632C391.002 70.0042 418.342 83.4844 426.896 108.672L598.081 612.684Z" fill="#0063FF"/>
<path opacity="0.7" d="M481.987 595.989C490.896 622.219 477.714 650.421 452.543 658.98C427.373 667.539 399.746 653.214 390.837 626.984L236.131 171.488C227.222 145.259 240.405 117.057 265.575 108.498C290.745 99.9386 318.372 114.264 327.281 140.493L481.987 595.989Z" fill="#0063FF"/>
<path opacity="0.8" d="M289.75 650.967L349.97 828.311C358.52 853.496 385.86 866.983 411.03 858.428C436.2 849.873 449.68 822.517 441.13 797.333L381.72 622.35L376.08 639.77C367.89 665.085 340.76 678.963 315.46 670.788C304.41 667.226 295.55 660.042 289.74 650.967H289.75Z" fill="#0063FF"/>
<path opacity="0.8" d="M310.847 742.798C318.753 766.075 304.757 791.884 279.587 800.443C254.417 809.002 227.603 797.07 219.697 773.793L67.3151 325.142C59.4091 301.865 73.4046 276.056 98.575 267.497C123.745 258.938 150.559 270.87 158.465 294.147L310.847 742.798Z" fill="#0063FF"/>
<path opacity="0.9" d="M142.254 566.578C150.809 591.766 137.34 619.123 112.169 627.682C86.9989 636.241 59.6591 622.761 51.1042 597.573L15.5293 492.832C6.97444 467.644 20.444 440.287 45.6144 431.728C70.7848 423.169 98.1246 436.649 106.68 461.837L142.254 566.578Z" fill="#0063FF"/>
<path d="M300.575 682.833C300.573 682.835 300.571 682.834 300.57 682.832L161.921 278.653L155.198 255.551C151.698 244.551 155.354 232.713 161.921 223.139C176.937 201.209 207.608 197.776 229.566 212.802L244.679 223.139L528.698 417.622C533.523 420.924 539.772 416.172 537.877 410.644L451.509 158.815C442.878 133.658 456.267 106.27 481.416 97.6519C506.577 89.0499 533.961 102.463 542.577 127.618L682.018 534.15C690.539 559.001 677.566 586.029 653.009 594.987L652.111 595.313C635.691 600.918 618.351 597.169 605.87 586.884C605.598 586.664 605.309 586.47 605.011 586.296C603.686 585.562 602.404 584.77 601.139 583.901L312.119 385.987C307.293 382.685 301.044 387.436 302.939 392.964L391.656 651.628C400.161 676.49 387.184 703.497 362.626 712.454L361.729 712.781C336.582 721.398 309.192 707.994 300.581 682.835C300.58 682.833 300.577 682.832 300.575 682.833Z" fill="#0063FF"/>
</svg>
